<svg width="24" height="24" version="1.1" viewBox="0 0 6.35 6.35" xmlns="http://www.w3.org/2000/svg">
 <g transform="translate(0,-290.65)">
  <path d="m2.8605 290.65c-1.3958 0-2.5372 1.1414-2.5372 2.5372-2.4e-6 1.3958 1.1414 2.5372 2.5372 2.5372 0.42377 0 0.82316-0.10601 1.1752-0.2916l1.295 1.5672 0.69596-0.57615-1.2809-1.5461c0.40366-0.44967 0.65192-1.0422 0.65191-1.6906-9.1e-6 -1.3958-1.1414-2.5372-2.5372-2.5372zm0 0.90299c0.90844 0 1.6342 0.72575 1.6342 1.6342 1.3e-6 0.90844-0.72575 1.6351-1.6342 1.6351-0.90845 0-1.6351-0.72663-1.6351-1.6351 6e-6 -0.90844 0.72663-1.6342 1.6351-1.6342z" color="#000000" color-rendering="auto" dominant-baseline="auto" image-rendering="auto" shape-rendering="auto" solid-color="#000000" style="font-feature-settings:normal;font-variant-alternates:normal;font-variant-caps:normal;font-variant-ligatures:normal;font-variant-numeric:normal;font-variant-position:normal;isolation:auto;mix-blend-mode:normal;shape-padding:0;text-decoration-color:#000000;text-decoration-line:none;text-decoration-style:solid;text-indent:0;text-orientation:mixed;text-transform:none;white-space:normal"/>
 </g>
</svg>
